<?xml version="1.0" encoding="utf-8" ?>
<svg baseProfile="full" height="100%" version="1.1" viewBox="0 0 1570.000000 496.208584" width="100%" xmlns="http://www.w3.org/2000/svg" xmlns:ev="http://www.w3.org/2001/xml-events" xmlns:xlink="http://www.w3.org/1999/xlink"><defs /><g id="0_A" transform="translate(104 44.20858397106309) scale(1 4.0)"><path d="M 0 100 L 33 0 L 66 0 L 100 100 L 75 100 L 66 75 L 33 75 L 25 100 L 0 100" fill="black" /><path d="M 41 55 L 50 25 L 58 55 L 41 55" fill="white" /></g><g id="1_S" transform="translate(208 44.20858397106309) scale(1 4.0)"><path d="M92 26 A43 20 0 1 0 43 46 A42 23 0 1 1 9 68" fill="white" stroke="green" stroke-width="18" /></g><g id="2_S" transform="translate(312 44.20858397106309) scale(1 4.0)"><path d="M92 26 A43 20 0 1 0 43 46 A42 23 0 1 1 9 68" fill="white" stroke="green" stroke-width="18" /></g><g id="3_-" transform="translate(416 356.9668671768505) scale(1 0.8724171679421262)"><path d="M 12.5 40 H 87.5 V 60 H 12.5 V 40" fill="black" /></g><g id="3_V" transform="translate(416 124.32228905895016) scale(1 2.3264457811790034)"><path d="M 0 0 L 20 0 L 50 80 L 80 0 L 100 0 L 60 100 L 40 100 L 0 0" fill="black" /></g><g id="4_L" transform="translate(520 44.20858397106309) scale(1 4.0)"><path d="M 0 0 L 0 100 L 100 100 L 100 80 L 20 80 L 20 0 L 0 0" fill="black" /></g><g id="5_E" transform="translate(624 44.20858397106309) scale(1 4.0)"><path d="M 0 0 L 100 0 L 100 20 L 20 20 L 20 40 L 90 40 L 90 60 L 20 60 L 20 80 L 100 80 L 100 100 L 0 100 L 0 0" fill="red" /></g><g id="6_N" transform="translate(728 356.9668671768505) scale(1 0.8724171679421262)"><path d="M 0 100 L 0 0 L 20 0 L 80 75 L 80 0 L 100 0 L 100 100 L 80 100 L 20 25 L 20 100 L 0 100" fill="purple" /></g><g id="6_Q" transform="translate(728 124.32228905895016) scale(1 2.3264457811790034)"><circle cx="50" cy="50" fill="purple" r="50" /><circle cx="50" cy="50" fill="white" r="32" /><path d="M 85 100 L 55 70 L 70 55 L 100 85 L 85 100" fill="purple" /></g><g id="7_Q" transform="translate(832 356.9668671768505) scale(1 0.8724171679421262)"><circle cx="50" cy="50" fill="purple" r="50" /><circle cx="50" cy="50" fill="white" r="32" /><path d="M 85 100 L 55 70 L 70 55 L 100 85 L 85 100" fill="purple" /></g><g id="7_L" transform="translate(832 269.7251503826379) scale(1 0.8724171679421262)"><path d="M 0 0 L 0 100 L 100 100 L 100 80 L 20 80 L 20 0 L 0 0" fill="black" /></g><g id="7_-" transform="translate(832 182.4834335884252) scale(1 0.8724171679421262)"><path d="M 12.5 40 H 87.5 V 60 H 12.5 V 40" fill="black" /></g><g id="8_D" transform="translate(936 356.9668671768505) scale(1 0.8724171679421262)"><path d="M 0 0 L 60 0 C 110 0 110 100 60 100 L 0 100 L 0 0" fill="red" /><path d="M 20 15 L 40 15 C 85 15 85 85 40 85 L 20 85 L 20 15" fill="white" /></g><g id="8_S" transform="translate(936 269.7251503826379) scale(1 0.8724171679421262)"><path d="M92 26 A43 20 0 1 0 43 46 A42 23 0 1 1 9 68" fill="white" stroke="green" stroke-width="18" /></g><g id="8_T" transform="translate(936 182.4834335884252) scale(1 0.8724171679421262)"><path d="M 0 0 L 0 20 L 35 20 L 35 100 L 65 100 L 65 20 L 100 20 L 100 0 L 0 0" fill="green" /></g><g id="9_V" transform="translate(1040 356.9668671768505) scale(1 0.8724171679421262)"><path d="M 0 0 L 20 0 L 50 80 L 80 0 L 100 0 L 60 100 L 40 100 L 0 0" fill="black" /></g><g id="9_G" transform="translate(1040 124.32228905895016) scale(1 2.3264457811790034)"><path d="M 100 28 C 100 -13 0 -13 0 50 C 0 113 100 113 100 72 L 100 48 L 55 48 L 55 72 L 75 72 C 75 90 30 90 30 50 C 30 10 75 5 75 28 L 100 28" fill="green" /></g><g id="10_L" transform="translate(1144 356.9668671768505) scale(1 0.8724171679421262)"><path d="M 0 0 L 0 100 L 100 100 L 100 80 L 20 80 L 20 0 L 0 0" fill="black" /></g><g id="10_Y" transform="translate(1144 124.32228905895016) scale(1 2.3264457811790034)"><path d="M 0 0 L 20 0 L 50 45 L 80 0 L 100 0 L 60 60 L 60 100 L 40 100 L 40 60 L 0 0" fill="green" /></g><g id="11_E" transform="translate(1248 44.20858397106309) scale(1 4.0)"><path d="M 0 0 L 100 0 L 100 20 L 20 20 L 20 40 L 90 40 L 90 60 L 20 60 L 20 80 L 100 80 L 100 100 L 0 100 L 0 0" fill="red" /></g><g id="12_Q" transform="translate(1352 44.20858397106309) scale(1 4.0)"><circle cx="50" cy="50" fill="purple" r="50" /><circle cx="50" cy="50" fill="white" r="32" /><path d="M 85 100 L 55 70 L 70 55 L 100 85 L 85 100" fill="purple" /></g><g id="13_Y" transform="translate(1456 44.20858397106309) scale(1 4.0)"><path d="M 0 0 L 20 0 L 50 45 L 80 0 L 100 0 L 60 60 L 60 100 L 40 100 L 40 60 L 0 0" fill="green" /></g><g id="axes" stroke="#000000" stroke-width="1.5"><path d="M 100 446.2085839710631 h 1464" /><path d="M 100 446.2085839710631 v -436.2085839710631" /><path d="M 100 446.2085839710631 h -5.0" /><text dominant-baseline="middle" fill="#000000" font-family="sans-serif" font-size="20pt" font-weight="normal" text-anchor="end" x="91.0" y="446.2085839710631">0.0</text><path d="M 100 358.9668671768505 h -5.0" /><text dominant-baseline="middle" fill="#000000" font-family="sans-serif" font-size="20pt" font-weight="normal" text-anchor="end" x="91.0" y="358.9668671768505">1.0</text><path d="M 100 271.7251503826378 h -5.0" /><text dominant-baseline="middle" fill="#000000" font-family="sans-serif" font-size="20pt" font-weight="normal" text-anchor="end" x="91.0" y="271.7251503826378">2.0</text><path d="M 100 184.4834335884252 h -5.0" /><text dominant-baseline="middle" fill="#000000" font-family="sans-serif" font-size="20pt" font-weight="normal" text-anchor="end" x="91.0" y="184.4834335884252">3.0</text><path d="M 100 97.2417167942126 h -5.0" /><text dominant-baseline="middle" fill="#000000" font-family="sans-serif" font-size="20pt" font-weight="normal" text-anchor="end" x="91.0" y="97.2417167942126">4.0</text><path d="M 100 10.0 h -5.0" /><text dominant-baseline="middle" fill="#000000" font-family="sans-serif" font-size="20pt" font-weight="normal" text-anchor="end" x="91.0" y="10.0">5.0</text><text dominant-baseline="hanging" fill="#000000" font-family="sans-serif" font-size="20pt" font-weight="normal" text-anchor="middle" x="154.0" y="456.2085839710631">A</text><text dominant-baseline="hanging" fill="#000000" font-family="sans-serif" font-size="20pt" font-weight="normal" text-anchor="middle" x="258.0" y="456.2085839710631">S</text><text dominant-baseline="hanging" fill="#000000" font-family="sans-serif" font-size="20pt" font-weight="normal" text-anchor="middle" x="362.0" y="456.2085839710631">S</text><text dominant-baseline="hanging" fill="#000000" font-family="sans-serif" font-size="20pt" font-weight="normal" text-anchor="middle" x="466.0" y="456.2085839710631">V</text><text dominant-baseline="hanging" fill="#000000" font-family="sans-serif" font-size="20pt" font-weight="normal" text-anchor="middle" x="570.0" y="456.2085839710631">L</text><text dominant-baseline="hanging" fill="#000000" font-family="sans-serif" font-size="20pt" font-weight="normal" text-anchor="middle" x="674.0" y="456.2085839710631">E</text><text dominant-baseline="hanging" fill="#000000" font-family="sans-serif" font-size="20pt" font-weight="normal" text-anchor="middle" x="778.0" y="456.2085839710631">Q</text><text dominant-baseline="hanging" fill="#000000" font-family="sans-serif" font-size="20pt" font-weight="normal" text-anchor="middle" x="882.0" y="456.2085839710631">L</text><text dominant-baseline="hanging" fill="#000000" font-family="sans-serif" font-size="20pt" font-weight="normal" text-anchor="middle" x="986.0" y="456.2085839710631">S</text><text dominant-baseline="hanging" fill="#000000" font-family="sans-serif" font-size="20pt" font-weight="normal" text-anchor="middle" x="1090.0" y="456.2085839710631">G</text><text dominant-baseline="hanging" fill="#000000" font-family="sans-serif" font-size="20pt" font-weight="normal" text-anchor="middle" x="1194.0" y="456.2085839710631">Y</text><text dominant-baseline="hanging" fill="#000000" font-family="sans-serif" font-size="20pt" font-weight="normal" text-anchor="middle" x="1298.0" y="456.2085839710631">E</text><text dominant-baseline="hanging" fill="#000000" font-family="sans-serif" font-size="20pt" font-weight="normal" text-anchor="middle" x="1402.0" y="456.2085839710631">Q</text><text dominant-baseline="hanging" fill="#000000" font-family="sans-serif" font-size="20pt" font-weight="normal" text-anchor="middle" x="1506.0" y="456.2085839710631">Y</text><text dominant-baseline="hanging" fill="#000000" font-family="sans-serif" font-size="28pt" font-weight="normal" text-anchor="middle" transform="rotate(-90, 0, 184.4834335884252)" x="0" y="184.4834335884252" /></g></svg>